<?xml version="1.0" encoding="UTF-8"?>
<!DOCTYPE svg PUBLIC "-//W3C//DTD SVG 1.1//EN" "http://www.w3.org/Graphics/SVG/1.1/DTD/svg11.dtd">
<svg version="1.1" xmlns="http://www.w3.org/2000/svg" xmlns:xlink="http://www.w3.org/1999/xlink" x="0" y="0" width="595.44" height="595.44" viewBox="0, 0, 595.44, 595.44">
  <g id="Layer_1">
    <path d="M100.805,171.072 L297.563,373.304 L494.492,171.072 L494.492,257.727 L297.563,447.168 L100.805,258.063 z" fill="#202C4E"/>
    <path d="M419.358,414.473 C414.137,419.526 404.043,419.284 404.043,419.284 L190.378,415.778 L166.09,415.512 C166.09,415.512 163.503,415.512 163.567,411.259 C163.637,406.653 165.544,406.968 165.544,406.968 L191.465,407.554 L405.819,406.407" fill="#FFFFFF"/>
    <path d="M404.315,420.287 C404.156,420.287 404.054,420.285 404.019,420.284 L190.361,416.778 L166.079,416.512 C165.967,416.512 164.864,416.484 163.906,415.511 C162.989,414.58 162.539,413.144 162.567,411.244 C162.603,408.899 163.108,407.303 164.068,406.501 C164.705,405.97 165.339,405.951 165.601,405.969 L191.487,406.554 L405.814,405.407 L405.824,407.407 L191.47,408.554 L165.381,407.955 C165.298,407.987 164.607,408.617 164.567,411.274 C164.521,414.334 165.952,414.503 166.116,414.513 L190.389,414.778 L404.059,418.284 C404.154,418.294 413.809,418.452 418.663,413.754 L420.053,415.192 C415.045,420.039 406.09,420.287 404.315,420.287" fill="#202C4E"/>
    <path d="M411.632,406.45 C415.759,406.632 422.568,404.175 416.492,400.198 C414.534,398.917 411.97,397.725 410.813,395.573 C409.183,392.545 411.151,388.329 414.236,387.191 C427.29,382.385 440.009,403.378 430.752,413.593 C426.837,417.912 421.035,419.116 415.428,419.272 C414.465,419.297 403.599,419.346 403.599,418.904 L403.599,407.534 C403.599,405.757 409.951,406.502 411.632,406.45" fill="#FFFFFF"/>
    <path d="M404.662,418.044 C405.859,418.143 408.581,418.224 412.866,418.224 C414.159,418.224 415.142,418.216 415.4,418.21 C422.118,418.022 426.883,416.279 429.965,412.879 C433.321,409.175 433.803,403.529 431.253,397.777 C428.996,392.686 424.063,387.549 418.131,387.549 C416.941,387.549 415.755,387.764 414.602,388.189 C413.329,388.658 412.194,389.859 411.641,391.321 C411.14,392.645 411.179,394.011 411.749,395.069 C412.536,396.533 414.196,397.542 415.803,398.517 C416.241,398.783 416.67,399.044 417.074,399.308 C419.391,400.825 420.327,402.39 419.858,403.962 C419.086,406.556 414.671,407.522 412.07,407.522 C411.905,407.522 411.743,407.519 411.585,407.512 L411.438,407.515 C411.079,407.515 410.586,407.495 410.018,407.47 C409.288,407.439 408.43,407.401 407.583,407.401 C405.609,407.401 404.896,407.62 404.662,407.731 z M412.866,420.35 C402.535,420.35 402.535,420.129 402.535,418.904 L402.535,407.534 C402.535,405.275 406.072,405.275 407.583,405.275 C408.461,405.275 409.352,405.313 410.11,405.346 C410.641,405.369 411.102,405.389 411.438,405.389 L411.598,405.387 C411.807,405.394 411.937,405.396 412.07,405.396 C414.665,405.396 417.515,404.385 417.821,403.355 C417.977,402.83 417.245,401.961 415.91,401.087 C415.525,400.835 415.116,400.587 414.699,400.335 C412.936,399.264 410.937,398.05 409.876,396.076 C409.015,394.476 408.934,392.468 409.652,390.568 C410.429,388.516 412.005,386.88 413.867,386.193 C415.256,385.683 416.69,385.423 418.131,385.423 C424.095,385.423 430.148,390.042 433.196,396.916 C436.054,403.361 435.419,410.025 431.54,414.307 C428.048,418.159 422.787,420.13 415.457,420.335 C415.19,420.341 414.186,420.35 412.866,420.35" fill="#202C4E"/>
    <path d="M174.699,407.376 C174.699,407.376 167.843,405.268 164.965,405.262 C162.715,405.257 159.782,405.228 158.215,406.406 C155.471,408.47 155.215,414.47 157.84,416.012 C159.137,416.774 162.34,417.304 164.465,417.304 C166.59,417.304 174.629,416.197 174.629,416.197 L163.84,416.012 L163.715,406.887 z" fill="#202C4E"/>
    <path d="M164.373,405.761 C162.211,405.761 159.798,405.842 158.517,406.806 C157.217,407.783 156.396,409.995 156.52,412.184 C156.611,413.785 157.2,415.055 158.094,415.581 C159.32,416.301 162.436,416.804 164.466,416.804 C165.076,416.804 166.199,416.709 167.48,416.575 L163.348,416.504 L163.208,406.364 L170.28,406.679 C168.358,406.204 166.24,405.764 164.965,405.762 z M164.466,417.804 C162.262,417.804 158.972,417.257 157.587,416.443 C156.387,415.738 155.634,414.206 155.522,412.24 C155.401,410.124 156.095,407.376 157.915,406.007 C159.443,404.857 162.05,404.761 164.373,404.761 L164.967,404.762 C167.886,404.768 174.564,406.811 174.847,406.898 L178.592,408.05 L164.223,407.41 L164.334,415.52 L174.639,415.697 L174.698,416.693 C174.369,416.738 166.601,417.804 164.466,417.804" fill="#202C4E"/>
    <path d="M391.818,406.407 L391.818,419.176 L387.464,419.176 C387.464,419.176 388.241,416.992 388.464,412.846 C388.654,409.338 387.464,406.407 387.464,406.407 z" fill="#005FAA"/>
    <path d="M391.818,406.407 L391.818,419.176 L387.464,419.176 C387.464,419.176 388.241,416.992 388.464,412.846 C388.654,409.338 387.464,406.407 387.464,406.407 z" fill="#202C4E"/>
    <path d="M382.068,406.407 L382.068,419.176 L373.714,419.176 C373.714,419.176 374.574,417.011 374.714,412.846 C374.839,409.137 373.714,406.407 373.714,406.407 z" fill="#202C4E"/>
    <path d="M374.402,418.675 L381.569,418.675 L381.569,406.906 L374.42,406.906 C374.756,407.966 375.305,410.153 375.214,412.863 C375.117,415.769 374.676,417.718 374.402,418.675 M382.569,419.675 L372.98,419.675 L373.25,418.991 C373.257,418.97 374.081,416.839 374.215,412.829 C374.335,409.282 373.263,406.623 373.252,406.596 L372.969,405.907 L382.569,405.906 z" fill="#202C4E"/>
    <path d="M274.878,220.792 L246.12,213.809 L258.816,209.905 C263.901,208.688 268.752,207.72 274.147,207.133 C282.097,181.404 318.533,188.714 318.533,214.366 C318.533,225.811 311.489,232.084 301.312,234.817 C300.823,245.638 304.962,255.852 305.947,261.206 C306.84,263.637 302.757,262.427 302.637,264.505 C304.193,275.71 311.436,283.887 317.465,290.637 C316.465,292.762 313.246,291.345 313.233,294.192 C317.787,299.113 328.782,302.521 333.399,307.382 C321.292,322.783 310.057,333.885 297.955,347.971 C291.526,340.291 266.203,314.643 260.215,306.973 C264.182,301.25 274.793,298.536 279.715,293.762 C279.924,291.135 275.727,292.404 275.479,290.235 C280.764,282.082 287.935,275.163 290.942,264.744 C291.211,262.887 287.09,263.387 287.699,261.576 C289.118,257.359 294.893,245.726 292.7,234.817 C284.97,227.848 278.576,230.742 267.77,233.185 L254.732,235.58 z" fill="#202C4E"/>
    <path d="M290.941,209.191 C290.941,211.62 288.964,213.589 286.525,213.589 C284.087,213.589 282.111,211.62 282.111,209.191 C282.111,206.762 284.087,204.794 286.525,204.794 C288.964,204.794 290.941,206.762 290.941,209.191" fill="#FFFFFF"/>
    <path d="M286.525,206.212 C284.873,206.212 283.528,207.548 283.528,209.192 C283.528,210.835 284.873,212.172 286.525,212.172 C288.178,212.172 289.524,210.835 289.524,209.192 C289.524,207.548 288.178,206.212 286.525,206.212 M286.525,215.007 C283.31,215.007 280.693,212.398 280.693,209.192 C280.693,205.985 283.31,203.377 286.525,203.377 C289.742,203.377 292.358,205.985 292.358,209.192 C292.358,212.398 289.742,215.007 286.525,215.007" fill="#FFFFFF"/>
    <path d="M274.816,370.716 C269.271,366.784 263.263,363.316 256.933,360.162 C259.11,375.6 246.027,390.34 236.399,376.655 C231.403,383.201 220.649,380.382 219.84,372.038 C216.266,373.447 209.882,378.955 201.957,379.954 C193.456,381.024 184.606,379.775 181.423,373.359 C190.245,371.15 199.804,369.672 205.268,364.121 C183.958,372.984 149.295,363.724 152.279,343.01 C159.314,345.019 164.113,349.254 172.812,349.609 C160.164,341.866 131.99,333.058 143.669,310.687 C152.991,316.793 161.064,324.146 174.137,326.517 C163.318,319 140.67,304.84 136.382,284.956 C133.067,269.583 138.657,249.062 155.591,252.629 C153.388,279.165 161.68,299.363 181.423,306.069 C176.055,299.771 168.175,284.659 168.175,268.464 C168.175,252.857 173.39,235.539 190.034,240.096 C180.379,278.04 203.097,310.42 239.049,311.345 C243.138,311.448 247.611,309.738 247.611,309.738 C253.701,316.935 290.263,350.412 297.549,360.502 C313.089,343.217 331.715,325.638 348.342,309.035 C393.712,315.314 413.318,284.837 403.316,240.096 C435.053,234.002 426.616,296.145 411.263,306.069 C431.755,299.889 439.873,279.288 437.759,252.629 C454.011,248.661 460.371,269.177 456.967,284.956 C452.701,304.744 431.11,318.568 418.55,326.517 C432.165,324.464 440.177,316.832 449.681,310.687 C461.271,331.689 434.47,342.451 420.537,348.948 C428.14,350.361 434.295,344.62 441.072,343.01 C443.739,364.391 409.95,372.436 388.745,364.121 C391.864,369.155 403.579,371.337 411.926,373.359 C405.566,384.956 379.876,379.759 374.173,371.379 C373.07,378.779 362.653,384.443 357.612,376.655 C348.114,389.258 333.58,377.525 337.08,360.162 C329.934,362.503 325.183,367.226 318.534,370.056" fill="#202C4E"/>
    <path d="M333.09,378.575 C328.902,374.075 319.803,370.577 319.803,370.577 L298.293,365.867 L298.299,365.574 L297.627,365.722 L296.955,365.574 L296.971,365.865 L275.451,370.577 C275.451,370.577 266.352,374.075 262.164,378.575 C258.242,382.79 253.973,388.761 253.956,393.639 C253.94,398.472 254.654,400.658 255.538,403.472 C256.422,406.285 259.778,413.854 263.027,413.946 C266.277,414.038 267.157,413.642 268.407,411.559 C269.657,409.476 267.789,406.139 267.539,403.889 C267.289,401.639 267.789,400.139 268.706,398.722 C269.622,397.305 271.986,397.578 273.164,402.407 C274.342,407.236 274.145,408.592 274.789,409.722 C275.434,410.851 276.027,411.639 276.943,411.639 C277.861,411.639 279.623,411.93 280.039,410.597 C280.455,409.264 280.184,405.453 280.086,403.264 C279.852,398.014 280.352,398.139 280.352,398.139 L281.502,398.794 C281.502,398.794 282.508,399.486 283.268,400.661 C284.557,402.654 284.35,402.411 284.684,404.744 C285.018,407.077 284.486,409.271 284.539,409.847 C284.602,410.514 285.716,411.636 286.872,411.805 C288.289,412.014 290.068,411.53 290.539,410.597 C291.008,409.663 292.434,398.139 291.35,394.972 C290.688,393.038 287.375,387.731 287.375,387.731 C287.375,387.731 289.217,386.255 291.846,385.687 C294.477,385.12 297.955,384.389 297.955,384.389 C297.955,384.389 300.777,385.12 303.408,385.687 C306.037,386.255 307.879,387.731 307.879,387.731 C307.879,387.731 304.567,393.038 303.904,394.972 C302.82,398.139 304.246,409.663 304.715,410.597 C305.186,411.53 306.965,412.014 308.382,411.805 C309.538,411.636 310.652,410.514 310.715,409.847 C310.769,409.271 310.236,407.077 310.57,404.744 C310.904,402.411 310.697,402.654 311.986,400.661 C312.746,399.486 313.752,398.794 313.752,398.794 L314.902,398.139 C314.902,398.139 315.402,398.014 315.168,403.264 C315.07,405.453 314.799,409.264 315.215,410.597 C315.631,411.93 317.392,411.639 318.31,411.639 C319.226,411.639 319.82,410.851 320.465,409.722 C321.11,408.592 320.912,407.236 322.09,402.407 C323.268,397.578 325.632,397.305 326.548,398.722 C327.465,400.139 327.965,401.639 327.715,403.889 C327.465,406.139 325.597,409.476 326.847,411.559 C328.097,413.642 328.976,414.038 332.226,413.946 C335.476,413.854 338.832,406.285 339.716,403.472 C340.6,400.658 341.315,398.472 341.298,393.639 C341.281,388.761 337.012,382.79 333.09,378.575" fill="#202C4E"/>
    <path d="M325.273,395.848 C326.494,395.848 327.638,396.491 328.334,397.567 C329.646,399.595 330.107,401.617 329.829,404.123 C329.727,405.032 329.444,405.989 329.171,406.914 C328.804,408.154 328.301,409.852 328.671,410.466 C329.381,411.65 329.491,411.832 331.445,411.832 C331.671,411.832 331.911,411.828 332.167,411.821 C333.306,411.785 336.301,407.249 337.688,402.834 L337.735,402.685 C338.579,400.002 339.188,398.063 339.173,393.646 C339.161,390.244 336.305,385.151 331.534,380.023 C327.995,376.221 320.323,373.072 319.182,372.618 L297.628,367.898 L297.627,367.898 L276.073,372.618 C274.932,373.073 267.25,376.231 263.721,380.023 C258.95,385.151 256.094,390.243 256.083,393.646 C256.068,398.067 256.678,400.007 257.522,402.692 L257.567,402.834 C258.954,407.248 261.948,411.784 263.088,411.821 C263.343,411.828 263.584,411.832 263.809,411.832 C265.765,411.832 265.874,411.65 266.585,410.466 C266.953,409.852 266.451,408.154 266.085,406.914 C265.811,405.989 265.527,405.032 265.427,404.123 C265.148,401.617 265.61,399.595 266.922,397.566 C267.617,396.491 268.761,395.848 269.983,395.848 C271.116,395.848 273.897,396.438 275.23,401.903 C275.812,404.29 276.076,405.897 276.251,406.96 C276.412,407.939 276.495,408.421 276.636,408.668 C276.917,409.16 277.089,409.4 277.188,409.517 C277.275,409.519 277.366,409.522 277.46,409.526 C277.659,409.533 277.906,409.543 278.085,409.538 C278.212,408.337 278.075,405.628 278.012,404.379 L277.963,403.358 C277.731,398.185 278.132,397.36 278.77,396.694 L279.398,396.037 L280.611,396.012 L281.151,396.147 L282.708,397.043 C282.847,397.138 284.091,398.018 285.053,399.507 C286.288,401.416 286.44,401.799 286.674,403.599 C286.706,403.837 286.742,404.114 286.789,404.443 C287.059,406.332 286.851,408.095 286.726,409.147 C286.715,409.243 286.704,409.331 286.694,409.412 C286.842,409.546 287.052,409.682 287.18,409.701 C287.767,409.789 288.372,409.642 288.644,409.521 C289.136,407.332 290.112,397.92 289.339,395.66 C288.914,394.419 286.803,390.829 285.572,388.857 L284.572,387.254 L286.046,386.073 C286.274,385.89 288.366,384.264 291.398,383.609 C294.034,383.041 297.518,382.308 297.518,382.308 L298.006,382.206 L298.489,382.331 C298.517,382.338 301.3,383.058 303.857,383.609 C306.889,384.264 308.981,385.89 309.21,386.073 L310.683,387.254 L309.683,388.857 C308.452,390.83 306.34,394.421 305.917,395.661 C305.143,397.92 306.119,407.332 306.612,409.521 C306.883,409.642 307.503,409.786 308.072,409.702 C308.203,409.683 308.413,409.546 308.561,409.411 C308.551,409.33 308.541,409.24 308.529,409.144 C308.405,408.091 308.196,406.33 308.466,404.443 C308.513,404.114 308.549,403.837 308.581,403.599 C308.815,401.799 308.966,401.416 310.202,399.506 C311.164,398.018 312.409,397.138 312.548,397.043 L312.7,396.947 L314.104,396.146 L314.641,396.013 L315.813,396.012 L316.484,396.694 C317.122,397.36 317.522,398.184 317.293,403.358 L317.243,404.379 C317.179,405.628 317.043,408.337 317.17,409.538 C317.349,409.543 317.595,409.534 317.794,409.526 C317.888,409.522 317.98,409.519 318.067,409.517 C318.166,409.4 318.339,409.16 318.619,408.668 C318.759,408.421 318.843,407.939 319.005,406.96 C319.179,405.897 319.443,404.29 320.025,401.903 C321.358,396.438 324.139,395.848 325.273,395.848 M331.445,416.084 C328.143,416.084 326.583,415.25 325.024,412.653 C323.694,410.437 324.47,407.815 325.093,405.708 C325.325,404.926 325.544,404.188 325.602,403.654 C325.759,402.243 325.539,401.305 325.113,400.475 C324.845,400.866 324.476,401.596 324.156,402.911 C323.612,405.14 323.374,406.59 323.2,407.649 C322.982,408.977 322.838,409.853 322.312,410.775 C321.758,411.746 320.607,413.765 318.31,413.765 C318.206,413.765 318.089,413.77 317.963,413.775 C317.755,413.783 317.531,413.791 317.301,413.791 C314.417,413.791 313.485,412.186 313.186,411.23 C312.751,409.833 312.838,407.313 312.996,404.164 L313.045,403.169 C313.048,403.115 313.049,403.062 313.051,403.01 C312.903,403.333 312.87,403.59 312.796,404.149 C312.764,404.402 312.725,404.695 312.675,405.045 C312.484,406.383 312.645,407.744 312.752,408.644 C312.82,409.224 312.87,409.643 312.833,410.045 C312.665,411.807 310.729,413.61 308.69,413.908 C308.374,413.955 308.041,413.979 307.703,413.979 C306.013,413.979 303.719,413.344 302.817,411.554 C302.076,410.077 300.646,397.928 301.893,394.283 C302.368,392.899 303.876,390.257 304.953,388.45 C304.393,388.187 303.714,387.928 302.961,387.766 C300.938,387.33 298.837,386.807 297.909,386.571 C296.863,386.791 294.326,387.328 292.295,387.766 C291.538,387.929 290.86,388.186 290.301,388.449 C291.378,390.255 292.887,392.898 293.361,394.283 C294.61,397.928 293.18,410.077 292.44,411.551 C291.536,413.344 289.242,413.979 287.552,413.979 C287.214,413.979 286.881,413.955 286.563,413.908 C284.524,413.61 282.588,411.805 282.423,410.046 C282.386,409.642 282.435,409.225 282.503,408.648 C282.61,407.746 282.772,406.385 282.58,405.045 C282.529,404.695 282.491,404.402 282.458,404.149 C282.385,403.59 282.352,403.333 282.203,403.009 C282.206,403.062 282.208,403.115 282.21,403.169 L282.259,404.164 C282.418,407.313 282.505,409.833 282.069,411.23 C281.771,412.186 280.839,413.791 277.953,413.791 C277.724,413.791 277.5,413.783 277.292,413.775 C277.166,413.77 277.048,413.765 276.944,413.765 C274.649,413.765 273.497,411.746 272.943,410.775 C272.417,409.853 272.273,408.977 272.055,407.649 C271.881,406.59 271.643,405.14 271.099,402.911 C270.778,401.596 270.41,400.866 270.142,400.475 C269.716,401.306 269.496,402.244 269.652,403.654 C269.712,404.188 269.93,404.926 270.162,405.708 C270.785,407.815 271.561,410.437 270.231,412.653 C268.672,415.25 267.112,416.084 263.809,416.084 C263.546,416.084 263.266,416.08 262.968,416.071 C257.283,415.91 253.548,404.227 253.51,404.109 L253.466,403.968 C252.579,401.148 251.814,398.713 251.831,393.631 C251.852,387.455 257.339,380.64 260.609,377.127 C265.079,372.322 274.298,368.743 274.689,368.593 L274.997,368.5 L294.752,364.175 L294.683,362.899 L297.628,363.545 L300.479,362.919 L300.454,364.164 L320.566,368.593 C320.957,368.743 330.174,372.322 334.647,377.127 C337.916,380.64 343.403,387.456 343.424,393.631 C343.442,398.709 342.677,401.142 341.792,403.96 L341.745,404.109 C341.708,404.227 337.972,415.91 332.286,416.071 C331.988,416.08 331.709,416.084 331.445,416.084" fill="#FFFFFF"/>
    <path d="M274.775,367.304 L282.548,373.304 L297.563,373.304 L310.577,372.363 L320.715,365.573 L300.653,361.325 L297.628,363.408 L293.715,360.502 z" fill="#202C4E"/>
    <path d="M263.459,224.354 C263.459,230.437 258.526,235.368 252.444,235.368 C246.36,235.368 241.429,230.437 241.429,224.354 C241.429,218.27 246.36,213.339 252.444,213.339 C258.526,213.339 263.459,218.27 263.459,224.354" fill="#FFFFFF"/>
    <path d="M250.818,106.238 L253.089,106.238 C254.259,106.238 255.133,105.937 255.709,105.334 C256.286,104.732 256.574,103.726 256.574,102.314 L256.574,98.675 C256.591,96.129 255.61,94.855 253.631,94.855 L250.818,94.855 z M245.01,126.577 L245.01,89.564 L253.773,89.564 C256.763,89.564 258.945,90.261 260.32,91.655 C261.694,93.05 262.382,95.194 262.382,98.086 L262.382,101.005 C262.382,104.81 261.114,107.315 258.579,108.521 C261.148,109.606 262.433,112.232 262.433,116.399 L262.433,122.326 C262.433,124.216 262.64,125.633 263.053,126.577 L257.165,126.577 C256.823,125.53 256.643,124.018 256.626,122.042 L256.626,116.245 C256.626,114.561 256.329,113.354 255.735,112.625 C255.141,111.895 254.174,111.529 252.831,111.529 L250.818,111.529 L250.818,126.577 z" fill="#202C4E"/>
    <path d="M273.839,118.038 C273.856,120.462 274.867,121.683 276.872,121.7 C278.894,121.7 279.896,120.479 279.879,118.038 L279.879,98.078 C279.879,95.654 278.872,94.442 276.859,94.442 C274.845,94.442 273.839,95.654 273.839,98.078 z M268.031,117.699 L268.031,98.443 C268.031,95.484 268.789,93.195 270.306,91.577 C271.821,89.96 274.006,89.151 276.859,89.151 C279.711,89.151 281.896,89.96 283.412,91.577 C284.928,93.195 285.686,95.484 285.686,98.443 L285.686,117.699 C285.686,120.659 284.928,122.948 283.412,124.565 C281.896,126.183 279.711,126.991 276.859,126.991 C274.006,126.991 271.821,126.183 270.306,124.565 C268.789,122.948 268.031,120.659 268.031,117.699" fill="#202C4E"/>
    <path d="M288.679,89.564 L294.487,89.564 L298.952,106.445 L303.417,89.564 L309.225,89.564 L301.584,114.317 L301.584,126.578 L295.777,126.578 L295.777,114.317 z" fill="#202C4E"/>
    <path d="M317.568,114.833 L323.173,114.833 L320.362,96.201 z M309.999,126.577 L315.89,89.564 L324.861,89.564 L330.752,126.577 L324.944,126.577 L323.94,119.918 L316.805,119.918 L315.806,126.577 z" fill="#202C4E"/>
    <path d="M334.724,126.578 L334.724,89.564 L340.532,89.564 L340.532,121.287 L350.108,121.287 L350.108,126.578 z" fill="#202C4E"/>
    <path d="M188.321,164.898 L188.321,136.712 L194.129,136.712 L194.129,165.282 C194.146,167.693 195.152,168.899 197.149,168.899 C199.162,168.899 200.16,167.693 200.143,165.282 L200.143,136.712 L205.95,136.712 L205.95,164.898 C205.95,167.892 205.169,170.19 203.606,171.79 C202.042,173.39 199.844,174.19 197.011,174.19 C194.177,174.19 192.021,173.39 190.541,171.79 C189.061,170.19 188.321,167.892 188.321,164.898" fill="#202C4E"/>
    <path d="M211.677,164.846 L211.677,145.591 C211.677,142.596 212.418,140.299 213.899,138.699 C215.382,137.098 217.542,136.298 220.382,136.298 C223.222,136.298 225.424,137.098 226.987,138.699 C228.55,140.299 229.332,142.596 229.332,145.591 L229.332,149.204 L223.525,149.204 L223.525,145.229 C223.525,142.803 222.518,141.589 220.505,141.589 C218.491,141.589 217.485,142.804 217.485,145.233 L217.485,165.23 C217.502,167.641 218.513,168.847 220.518,168.847 C222.539,168.847 223.542,167.639 223.525,165.223 L223.525,159.916 L229.332,159.916 L229.332,164.846 C229.332,167.84 228.55,170.137 226.987,171.738 C225.424,173.338 223.222,174.138 220.382,174.138 C217.542,174.138 215.382,173.338 213.899,171.738 C212.418,170.137 211.677,167.84 211.677,164.846" fill="#202C4E"/>
    <path d="M234.052,164.846 L234.052,145.591 C234.052,142.596 234.793,140.299 236.274,138.699 C237.757,137.098 239.917,136.298 242.757,136.298 C245.597,136.298 247.799,137.098 249.362,138.699 C250.925,140.299 251.707,142.596 251.707,145.591 L251.707,149.204 L245.9,149.204 L245.9,145.229 C245.9,142.803 244.893,141.589 242.88,141.589 C240.866,141.589 239.86,142.804 239.86,145.233 L239.86,165.23 C239.877,167.641 240.888,168.847 242.893,168.847 C244.914,168.847 245.917,167.639 245.9,165.223 L245.9,159.916 L251.707,159.916 L251.707,164.846 C251.707,167.84 250.925,170.137 249.362,171.738 C247.799,173.338 245.597,174.138 242.757,174.138 C239.917,174.138 237.757,173.338 236.274,171.738 C234.793,170.137 234.052,167.84 234.052,164.846" fill="#202C4E"/>
    <path d="M256.635,173.726 L256.635,136.712 L262.443,136.712 L262.443,168.435 L272.019,168.435 L272.019,173.726 z" fill="#202C4E"/>
    <path d="M275.115,173.726 L275.115,136.712 L290.963,136.712 L290.963,142.003 L280.923,142.003 L280.923,152.302 L288.898,152.302 L288.898,157.594 L280.923,157.594 L280.923,168.435 L290.963,168.435 L290.963,173.726 z" fill="#202C4E"/>
    <path d="M302.113,164.846 L302.113,162.574 L308.076,162.574 L308.076,165.218 C308.076,167.637 309.005,168.847 310.864,168.847 L310.888,168.847 C312.729,168.847 313.651,167.641 313.651,165.23 C313.651,163.852 313.253,162.56 312.458,161.354 C311.662,160.148 310.712,159.046 309.605,158.047 L306.617,154.947 C305.382,153.862 304.349,152.519 303.517,150.916 C302.684,149.315 302.268,147.54 302.268,145.594 C302.268,142.599 303.053,140.301 304.625,138.7 C306.196,137.099 308.329,136.298 311.026,136.298 C313.722,136.298 315.794,137.098 317.239,138.699 C318.684,140.299 319.407,142.596 319.407,145.591 L319.407,146.778 L313.909,146.778 L313.909,145.229 C313.909,142.803 312.937,141.589 310.992,141.589 C309.048,141.589 308.076,142.804 308.076,145.233 C308.076,146.249 308.288,147.218 308.711,148.139 C309.135,149.061 309.683,149.892 310.357,150.633 C311.031,151.373 311.775,152.105 312.587,152.828 C313.399,153.552 314.202,154.31 314.993,155.102 C315.785,155.895 316.516,156.743 317.187,157.647 C317.859,158.551 318.405,159.619 318.826,160.851 C319.248,162.083 319.459,163.422 319.459,164.868 C319.459,167.855 318.719,170.147 317.239,171.743 C315.759,173.34 313.67,174.138 310.973,174.138 C308.275,174.138 306.123,173.338 304.519,171.738 C302.915,170.137 302.113,167.84 302.113,164.846" fill="#202C4E"/>
    <path d="M330.554,154.548 L333.316,154.548 C334.262,154.548 334.971,154.281 335.445,153.748 C335.918,153.214 336.155,152.311 336.155,151.037 L336.155,145.488 C336.155,144.215 335.918,143.316 335.445,142.791 C334.971,142.266 334.262,142.003 333.316,142.003 L330.554,142.003 z M324.746,173.726 L324.746,136.712 L333.303,136.712 C339.076,136.712 341.963,139.77 341.963,145.885 L341.963,150.692 C341.963,156.79 339.079,159.839 333.31,159.839 L330.554,159.839 L330.554,173.726 z" fill="#202C4E"/>
    <path d="M352.183,165.186 C352.2,167.61 353.211,168.831 355.215,168.848 C357.238,168.848 358.24,167.627 358.223,165.186 L358.223,145.226 C358.223,142.802 357.216,141.59 355.203,141.59 C353.189,141.59 352.183,142.802 352.183,145.226 z M346.375,164.847 L346.375,145.591 C346.375,142.632 347.133,140.343 348.65,138.725 C350.166,137.108 352.35,136.299 355.203,136.299 C358.055,136.299 360.239,137.108 361.756,138.725 C363.273,140.343 364.031,142.632 364.031,145.591 L364.031,164.847 C364.031,167.807 363.273,170.096 361.756,171.713 C360.239,173.331 358.055,174.139 355.203,174.139 C352.35,174.139 350.166,173.331 348.65,171.713 C347.133,170.096 346.375,167.807 346.375,164.847" fill="#202C4E"/>
    <path d="M375.591,153.386 L377.863,153.386 C379.032,153.386 379.906,153.085 380.482,152.482 C381.058,151.88 381.347,150.874 381.347,149.462 L381.347,145.823 C381.364,143.277 380.383,142.003 378.404,142.003 L375.591,142.003 z M369.783,173.725 L369.783,136.712 L378.546,136.712 C381.536,136.712 383.718,137.409 385.093,138.803 C386.467,140.198 387.155,142.342 387.155,145.234 L387.155,148.153 C387.155,151.958 385.886,154.463 383.351,155.669 C385.922,156.754 387.206,159.38 387.206,163.547 L387.206,169.474 C387.206,171.364 387.413,172.781 387.825,173.725 L381.938,173.725 C381.596,172.678 381.416,171.166 381.399,169.19 L381.399,163.393 C381.399,161.709 381.102,160.502 380.508,159.773 C379.914,159.043 378.946,158.677 377.605,158.677 L375.591,158.677 L375.591,173.725 z" fill="#202C4E"/>
    <path d="M389.89,142.003 L389.89,136.712 L407.881,136.712 L407.881,142.003 L401.789,142.003 L401.789,173.726 L395.981,173.726 L395.981,142.003 z" fill="#202C4E"/>
    <path d="M264.298,470.725 L258.246,470.725 L258.246,466.62 C263.14,466.62 264.877,465.568 266.192,461.989 L270.087,461.989 L270.087,498.828 L264.298,498.828 z" fill="#202C4E"/>
    <path d="M287.934,476.83 L287.934,470.304 C287.934,467.883 286.934,466.726 284.935,466.726 C282.935,466.726 281.935,467.883 281.935,470.304 L281.935,476.83 C281.935,479.303 282.935,480.461 284.935,480.461 C286.934,480.461 287.934,479.303 287.934,476.83 M276.252,490.092 L276.252,489.408 L281.724,489.408 L281.724,490.46 C281.724,493.092 282.882,494.091 284.724,494.091 C286.776,494.091 287.934,493.092 287.934,489.566 L287.934,482.514 C286.776,484.671 284.987,485.724 282.566,485.724 C278.304,485.724 276.146,482.724 276.146,477.304 L276.146,470.725 C276.146,464.831 279.251,461.463 284.935,461.463 C290.618,461.463 293.723,464.831 293.723,470.725 L293.723,489.776 C293.723,495.986 290.881,499.354 284.882,499.354 C279.198,499.354 276.252,495.986 276.252,490.092" fill="#202C4E"/>
    <path d="M310.866,490.46 L310.866,470.356 C310.866,467.726 309.709,466.726 307.866,466.726 C306.025,466.726 304.867,467.726 304.867,470.356 L304.867,490.46 C304.867,493.091 306.025,494.091 307.866,494.091 C309.709,494.091 310.866,493.091 310.866,490.46 M299.078,490.092 L299.078,470.725 C299.078,464.831 302.183,461.463 307.866,461.463 C313.55,461.463 316.655,464.831 316.655,470.725 L316.655,490.092 C316.655,495.986 313.55,499.354 307.866,499.354 C302.183,499.354 299.078,495.986 299.078,490.092" fill="#202C4E"/>
    <path d="M331.21,467.252 L319.527,467.252 L319.527,461.989 L336.894,461.989 L336.894,467.042 L327.842,498.827 L321.79,498.827 z" fill="#202C4E"/>
    <path d="M256.154,231.955 L256.772,231.554 C258.448,230.475 260.466,229.177 261.998,226.567 C261.103,230.434 257.911,233.443 253.897,234.039 C254.314,233.438 255.006,232.714 256.154,231.955 M247.602,229.227 C248.468,226.822 248.364,224.428 248.273,222.311 C248.192,220.432 248.122,218.808 248.771,217.803 C250.367,215.334 252.474,214.739 253.365,214.597 C255.949,214.838 258.29,216.071 259.937,218.037 C260.261,218.504 261.818,220.984 260.626,223.896 C259.347,227.023 257.284,228.35 255.462,229.523 L254.828,229.935 L254.825,229.937 C252.571,231.427 251.589,232.948 251.167,234.071 C249.228,233.817 247.403,232.982 245.938,231.682 C246.612,231.199 247.133,230.532 247.602,229.227 M246.741,216.491 C245.673,218.143 245.763,220.22 245.859,222.418 C245.945,224.4 246.033,226.45 245.328,228.409 C245.008,229.299 244.776,229.591 244.339,229.849 C243.224,228.214 242.637,226.324 242.637,224.354 C242.637,221.103 244.264,218.111 246.862,216.307 C246.821,216.368 246.781,216.429 246.741,216.491 M261.468,216.88 C261.442,216.844 261.424,216.82 261.417,216.81 L261.41,216.816 C259.537,214.592 256.855,213.075 253.82,212.718 L253.82,212.63 C253.787,212.63 253.591,212.634 253.288,212.673 C253.008,212.653 252.729,212.63 252.444,212.63 C245.979,212.63 240.72,217.89 240.72,224.354 C240.72,230.818 245.979,236.077 252.444,236.077 C258.908,236.077 264.167,230.818 264.167,224.354 C264.167,221.516 263.153,218.911 261.468,216.88" fill="#202C4E"/>
    <path d="M246.783,309.036 L297.549,360.503 L348.342,309.036 L339.549,309.304 L333.398,307.383 L297.791,344.304 L260.215,306.972 L253.955,308.304 z" fill="#FFFFFF"/>
    <path d="M459.737,285.554 C462.36,273.392 459.539,260.368 452.877,253.883 C448.651,249.771 443.189,248.385 437.087,249.876 L434.742,250.448 L434.933,252.853 C435.964,265.873 435.098,286.943 421.032,297.954 C427.641,284.337 430.11,262.509 424.918,249.575 C420.949,239.688 413.085,235.336 402.781,237.312 L399.912,237.863 L400.549,240.714 C405.744,263.954 402.731,283.132 392.065,294.715 C382.71,304.876 367.729,308.857 348.73,306.228 L347.335,306.034 L346.339,307.03 C341.938,311.424 337.293,315.988 332.801,320.403 C320.899,332.1 308.618,344.169 297.688,356.128 C291.625,348.981 278.84,336.583 267.391,325.482 C259.523,317.852 252.09,310.645 249.774,307.907 L248.475,306.373 L246.598,307.091 C245.5,307.511 242.013,308.59 239.121,308.511 C223.421,308.108 209.868,301.404 200.959,289.634 C191.158,276.687 188.177,258.885 192.78,240.795 L193.466,238.097 L190.781,237.362 C184.695,235.695 179.468,236.485 175.244,239.708 C166.305,246.529 165.339,262.09 165.339,268.464 C165.339,279.83 169.083,290.734 173.237,298.665 C161.846,290.222 156.629,274.372 158.415,252.863 L158.622,250.371 L156.174,249.856 C149.843,248.52 144.276,250.046 140.081,254.262 C132.616,261.762 131.494,275.74 133.61,285.554 C135.799,295.7 142.285,304.295 149.698,311.366 C148.238,310.346 146.742,309.312 145.221,308.316 L142.604,306.601 L141.155,309.375 C138.019,315.382 137.264,321.072 138.91,326.289 C140.654,331.815 144.862,336.173 149.877,339.798 L149.472,342.606 C148.412,349.968 151.315,356.548 157.868,361.633 C164.187,366.535 173.162,369.466 182.483,370.181 C181.897,370.322 181.314,370.464 180.734,370.609 L177.318,371.464 L178.883,374.618 C182.175,381.256 190.715,384.226 202.311,382.766 C208.394,382 213.511,378.923 217.247,376.677 C217.522,376.511 217.79,376.35 218.05,376.196 C219.462,379.291 222.161,381.628 225.661,382.626 C229.36,383.679 233.195,382.966 236.152,380.819 C239.239,384.022 242.348,384.897 244.822,384.897 C246.505,384.897 247.896,384.492 248.785,384.14 C255.068,381.656 259.532,373.607 259.966,364.919 C264.834,367.526 269.185,370.199 273.175,373.028 L276.455,368.603 C271.084,364.794 265.112,361.07 258.196,357.625 L253.373,355.223 L254.126,360.558 C255.336,369.14 251.183,377.096 246.7,378.869 C243.284,380.218 240.474,377.523 238.716,375.025 L236.491,371.862 L234.145,374.936 C232.198,377.487 229.289,377.766 227.215,377.174 C224.62,376.434 222.917,374.412 222.66,371.765 L222.297,368.023 L218.8,369.401 C217.483,369.92 216.02,370.8 214.326,371.819 C210.839,373.915 206.498,376.525 201.602,377.142 C198.176,377.575 190.898,378.036 186.559,375.043 C194.265,373.233 202.174,371.304 207.287,366.11 L217.119,356.123 L204.179,361.504 C190.814,367.063 171.598,365.111 161.343,357.154 C157.561,354.219 155.443,350.807 155.013,346.977 C156.077,347.414 157.127,347.89 158.207,348.38 C162.341,350.255 166.615,352.193 172.696,352.441 L183.593,352.885 L174.291,347.191 C172.062,345.826 169.417,344.455 166.617,343.003 C157.834,338.448 146.903,332.781 144.316,324.583 C143.377,321.607 143.555,318.422 144.868,314.914 C145.767,315.533 146.658,316.157 147.534,316.772 C154.922,321.947 162.56,327.298 173.63,329.306 L186.47,331.635 L175.753,324.189 C174.95,323.631 174.082,323.037 173.162,322.406 C161.838,314.652 142.885,301.672 139.152,284.359 C136.982,274.297 139.063,263.321 144.099,258.261 C146.38,255.968 149.216,254.899 152.577,255.077 C150.996,282.667 161.093,302.157 180.51,308.753 L190.255,312.063 L183.579,304.23 C178.526,298.301 171.008,283.885 171.008,268.464 C171.008,256.947 173.878,247.881 178.683,244.215 C180.87,242.546 183.48,241.907 186.609,242.291 C182.599,261.065 186.121,279.426 196.439,293.056 C206.41,306.228 221.517,313.729 238.976,314.178 C241.868,314.252 244.862,313.553 246.733,313.007 C249.94,316.456 256.27,322.594 263.445,329.551 C275.717,341.451 290.989,356.261 295.251,362.162 L297.307,365.01 L299.657,362.397 C311.016,349.76 324.111,336.891 336.775,324.447 C340.94,320.353 345.237,316.13 349.356,312.027 C369.619,314.527 385.805,309.883 396.235,298.555 C407.71,286.094 411.394,266.28 406.722,242.526 C412.814,242.232 417.074,245.253 419.657,251.687 C426.069,267.659 419.018,297.68 409.723,303.688 L392.888,314.571 L412.081,308.782 C432.244,302.702 442.373,283.652 440.76,255.004 C443.932,254.764 446.667,255.749 448.922,257.946 C454.176,263.059 456.394,274.167 454.196,284.359 C450.14,303.168 428.604,316.799 417.034,324.122 L405.646,331.329 L418.972,329.32 C430.383,327.599 438.041,322.218 445.445,317.015 C446.458,316.304 447.488,315.58 448.529,314.865 C449.876,318.308 450.041,321.496 449.038,324.542 C445.868,334.179 431.383,340.838 421.797,345.244 C420.943,345.636 420.121,346.015 419.338,346.38 L411.317,350.119 L420.018,351.735 C425.783,352.808 430.729,350.464 435.094,348.398 C436.188,347.88 437.254,347.376 438.301,346.935 C437.869,350.929 435.76,354.416 432.003,357.336 C422.239,364.923 403.297,366.781 389.779,361.483 L381.847,358.373 L386.335,365.614 C389.488,370.703 398.285,373.053 406.522,374.998 C403.859,376.662 400.425,377.119 398.202,377.226 C388.988,377.67 379.154,373.662 376.516,369.784 L372.438,363.792 L371.369,370.961 C370.925,373.935 368.214,376.777 365.195,377.43 C363.043,377.898 361.287,377.118 359.991,375.115 L357.788,371.712 L355.347,374.949 C352.524,378.695 349.21,379.967 346.005,378.528 C341.676,376.583 338.051,369.681 339.857,360.722 L340.819,355.954 L336.196,357.468 C331.88,358.883 328.435,361.057 325.104,363.16 C322.559,364.767 320.019,366.707 317.285,367.87 L319.643,372.664 C322.796,371.322 325.508,369.61 328.13,367.954 C329.998,366.775 331.804,365.634 333.716,364.652 C333.461,374.123 338.139,381.208 343.681,383.699 C348.459,385.846 353.491,384.786 357.616,380.899 C360.049,382.906 363.153,383.674 366.395,382.971 C370.088,382.172 373.354,379.677 375.281,376.454 C380.781,380.578 390.038,383.296 398.473,382.888 C406.062,382.525 411.722,379.624 414.411,374.721 L416.191,371.475 L412.593,370.604 C411.883,370.432 411.15,370.259 410.399,370.083 C419.991,369.533 429.207,366.688 435.481,361.812 C441.918,356.811 444.823,350.188 443.883,342.659 L443.525,339.781 C448.509,336.101 452.658,331.679 454.424,326.314 C456.187,320.951 455.426,315.233 452.162,309.317 L450.693,306.656 L448.141,308.306 C446.738,309.214 445.361,310.156 444.014,311.096 C451.314,304.081 457.579,295.567 459.737,285.554" fill="#FFFFFF"/>
    <path d="M154.064,474.65 C196.29,508.173 255.086,528.383 297.783,541.739 C297.783,541.739 398.98,508.168 441.206,474.639 C472.348,449.911 494.474,417.939 494.471,376.133 C494.46,270.631 494.451,205.128 494.44,99.626 C423.49,69.743 359.396,53.809 293.9,53.658 C293.695,53.658 293.486,53.664 293.287,53.658 C227.811,51.789 159.287,71.658 100.815,99.626 C100.804,205.128 100.794,270.631 100.784,376.133 C100.781,417.946 122.914,449.921 154.064,474.65" fill-opacity="0" stroke="#202C4E" stroke-width="5"/>
  </g>
</svg>
